<?xml version="1.0" standalone="no"?>
<!DOCTYPE svg PUBLIC "-//W3C//DTD SVG 1.1//EN" "http://www.w3.org/Graphics/SVG/1.1/DTD/svg11.dtd">
<!--Generator: Xara Designer (www.xara.com), SVG filter version: 6.7.0.0-->
<svg fill="none" fill-rule="evenodd" stroke="black" stroke-width="0.501" stroke-linejoin="bevel" stroke-miterlimit="10" font-family="Times New Roman" font-size="16" style="font-variant-ligatures:none" xmlns:xlink="http://www.w3.org/1999/xlink" xmlns="http://www.w3.org/2000/svg" version="1.1" overflow="visible" width="54.058pt" height="19.715pt" viewBox="308.91 -458.323 54.058 19.715">
 <defs>
	</defs>
 <g id="Page background" transform="scale(1 -1)"/>
 <g id="MouseOff" transform="scale(1 -1)">
  <g id="Group" fill-rule="nonzero" stroke-linejoin="miter" stroke="none" fill="#00ff03">
   <path d="M 324.638,449.875 C 323.853,449.875 323.217,449.239 323.217,448.455 C 323.217,447.672 323.853,447.035 324.638,447.035 C 325.423,447.035 326.059,447.672 326.059,448.455 C 326.059,449.239 325.423,449.875 324.638,449.875 Z M 321.921,453.613 C 321.366,453.06 321.366,452.16 321.921,451.605 C 322.474,451.051 323.375,451.051 323.93,451.605 C 324.485,452.16 324.485,453.06 323.93,453.613 C 323.375,454.171 322.474,454.171 321.921,453.613 Z M 317.355,454.337 C 317.355,453.551 317.994,452.916 318.776,452.916 C 319.56,452.916 320.195,453.551 320.195,454.337 C 320.195,455.121 319.56,455.757 318.776,455.757 C 317.994,455.757 317.355,455.121 317.355,454.337 Z M 313.617,451.619 C 314.172,451.064 315.07,451.064 315.625,451.619 C 316.181,452.172 316.181,453.072 315.625,453.627 C 315.07,454.183 314.172,454.183 313.617,453.627 C 313.062,453.072 313.062,452.172 313.617,451.619 Z M 312.895,447.053 C 313.679,447.053 314.316,447.692 314.316,448.474 C 314.316,449.258 313.679,449.893 312.895,449.893 C 312.112,449.893 311.474,449.258 311.474,448.474 C 311.474,447.692 312.112,447.053 312.895,447.053 Z M 318.768,458.323 C 313.332,458.323 308.91,453.9 308.91,448.466 C 308.91,443.675 312.345,439.67 316.882,438.791 C 317.491,438.671 318.122,438.608 318.768,438.608 C 319.41,438.608 320.042,438.671 320.65,438.791 C 325.19,439.67 328.622,443.675 328.622,448.466 C 328.622,453.9 324.201,458.323 318.768,458.323 Z M 320.574,439.549 C 320.338,440.321 319.618,440.882 318.768,440.882 C 317.917,440.882 317.198,440.321 316.955,439.549 C 312.805,440.387 309.67,444.067 309.67,448.466 C 309.67,453.482 313.751,457.564 318.768,457.564 C 323.784,457.564 327.865,453.482 327.865,448.466 C 327.865,444.067 324.73,440.387 320.574,439.549 Z" stroke-width="0.19" marker-start="none" marker-end="none"/>
   <g id="Group_1" stroke-width="0.044">
    <path d="M 331.815,453.613 L 342.012,453.613 C 342.868,453.613 343.366,452.874 343.366,451.994 L 343.366,441.975 L 340.522,441.975 L 340.522,450.682 L 338.86,450.682 L 338.86,441.975 L 336.278,441.975 L 336.278,450.682 L 334.659,450.682 L 334.659,441.975 L 331.815,441.975 L 331.815,453.613 Z" marker-start="none" marker-end="none"/>
    <rect x="-24.3745" y="-99.7495" width="48.749" height="199.499" rx="0" ry="0" transform="matrix(0.0583344 0 0 0.0583344 346.188 447.794)"/>
    <path d="M 348.967,453.613 L 357.41,453.613 C 358.269,453.613 358.767,452.874 358.767,451.994 L 358.767,443.419 C 358.767,442.329 358.313,441.975 357.323,441.975 L 348.967,441.975 L 348.967,449.369 L 351.854,449.369 L 351.854,444.819 L 355.923,444.819 L 355.923,450.988 L 348.967,450.988 L 348.967,453.613 Z" marker-start="none" marker-end="none"/>
    <rect x="-24.7495" y="-99.7495" width="49.499" height="199.499" rx="0" ry="0" transform="matrix(0.0583344 0 0 0.0583344 361.523 447.794)"/>
   </g>
  </g>
 </g>
</svg>
