<?xml version="1.0" standalone="no"?>
<!DOCTYPE svg PUBLIC "-//W3C//DTD SVG 1.1//EN" "http://www.w3.org/Graphics/SVG/1.1/DTD/svg11.dtd">
<!--Generator: Xara Designer (www.xara.com), SVG filter version: 6.7.0.0-->
<svg fill="none" fill-rule="evenodd" stroke="black" stroke-width="0.501" stroke-linejoin="bevel" stroke-miterlimit="10" font-family="Times New Roman" font-size="16" style="font-variant-ligatures:none" xmlns:xlink="http://www.w3.org/1999/xlink" xmlns="http://www.w3.org/2000/svg" version="1.1" overflow="visible" width="46.597pt" height="149.781pt" viewBox="472.975 -265.046 46.597 149.781">
 <defs>
	</defs>
 <g id="Page background" transform="scale(1 -1)"/>
 <g id="MouseOff" transform="scale(1 -1)">
  <path d="M 473.725,239.624 C 473.372,250.729 483.78,264.296 496.168,264.296 L 496.168,264.296 C 496.203,264.296 496.238,264.294 496.274,264.294 C 496.309,264.294 496.344,264.296 496.379,264.296 L 496.379,264.296 C 508.767,264.296 519.175,250.729 518.822,239.624 C 517.391,194.839 506.859,157.499 496.379,118.125 L 496.379,118.125 C 496.344,118.25 496.309,118.377 496.274,118.504 C 496.238,118.377 496.203,118.25 496.168,118.125 L 496.168,118.125 C 485.688,157.499 475.156,194.839 473.725,239.624 Z" stroke-linejoin="miter" stroke-linecap="round" stroke-width="1.5" stroke="#fffc00" marker-start="none" marker-end="none"/>
 </g>
</svg>
