<?xml version="1.0" standalone="no"?>
<!DOCTYPE svg PUBLIC "-//W3C//DTD SVG 1.1//EN" "http://www.w3.org/Graphics/SVG/1.1/DTD/svg11.dtd">
<!--Generator: Xara Designer (www.xara.com), SVG filter version: 6.7.0.0-->
<svg fill="none" fill-rule="evenodd" stroke="black" stroke-width="0.501" stroke-linejoin="bevel" stroke-miterlimit="10" font-family="Times New Roman" font-size="16" style="font-variant-ligatures:none" xmlns:xlink="http://www.w3.org/1999/xlink" xmlns="http://www.w3.org/2000/svg" version="1.1" overflow="visible" width="280.321pt" height="280.321pt" viewBox="100.319 -500.16 280.321 280.321">
 <defs>
	</defs>
 <g id="Layer 1" transform="scale(1 -1)">
  <path d="M 354.24,360 C 354.24,374.88 365.76,387.36 380.64,388.8 C 376.8,407.04 369.6,423.84 360,438.72 C 348.48,429.6 331.68,430.08 321.12,440.64 C 310.56,451.2 310.08,468 319.2,479.52 C 304.32,489.6 287.52,496.8 269.28,500.16 C 267.84,485.28 255.359,473.76 240.48,473.76 C 225.6,473.76 213.119,485.28 211.68,500.16 C 193.44,496.32 176.64,489.12 161.759,479.52 C 170.88,468 170.399,451.2 159.839,440.64 C 149.279,430.08 132.479,429.6 120.959,438.72 C 110.879,423.84 103.679,407.04 100.319,388.8 C 115.199,387.36 126.719,374.88 126.719,360 C 126.719,345.12 115.199,332.64 100.319,331.2 C 104.159,312.96 111.359,296.16 120.959,281.28 C 132.479,290.4 149.279,289.92 159.839,279.36 C 170.399,268.8 170.879,252 161.759,240.48 C 176.639,230.4 193.439,223.2 211.68,219.839 C 213.119,234.719 225.6,246.239 240.48,246.239 C 255.359,246.239 267.84,234.719 269.28,219.839 C 287.52,223.68 304.32,230.88 319.2,240.48 C 310.08,252 310.56,268.8 321.12,279.36 C 331.68,289.919 348.48,290.4 360,281.28 C 370.08,296.16 377.28,312.96 380.64,331.2 C 365.76,332.64 354.24,345.12 354.24,360 Z M 240,279.36 C 195.36,279.36 159.36,315.36 159.36,359.999 C 159.36,404.639 195.36,440.639 240,440.639 C 284.64,440.639 320.64,404.64 320.64,360 C 320.64,315.36 284.64,279.36 240,279.36 Z" stroke="none" fill="#000000" stroke-width="4.8" fill-rule="nonzero" stroke-linejoin="miter" marker-start="none" marker-end="none"/>
 </g>
</svg>
